<svg width="32" height="64" viewBox="0 0 32 64" fill="none" xmlns="http://www.w3.org/2000/svg">
<path d="M13.1068 31.2889L12.6596 31.0652L13.1068 31.2889ZM18.8957 31.2889L19.3429 31.0652L18.8957 31.2889ZM16.4485 27.5125L18.4485 31.5125L19.3429 31.0652L17.3429 27.0652L16.4485 27.5125ZM13.554 31.5125L15.554 27.5125L14.6596 27.0652L12.6596 31.0652L13.554 31.5125ZM12.5013 31.7361V62.5H13.5013V31.7361H12.5013ZM14.0013 64H18.0013V63H14.0013V64ZM19.5013 62.5V31.7361H18.5013V62.5H19.5013ZM18.0013 64C18.8297 64 19.5013 63.3284 19.5013 62.5H18.5013C18.5013 62.7761 18.2774 63 18.0013 63V64ZM12.5013 62.5C12.5013 63.3284 13.1728 64 14.0013 64V63C13.7251 63 13.5013 62.7761 13.5013 62.5H12.5013ZM12.6596 31.0652C12.5555 31.2735 12.5013 31.5032 12.5013 31.7361H13.5013C13.5013 31.6584 13.5193 31.5819 13.554 31.5125L12.6596 31.0652ZM18.4485 31.5125C18.4832 31.5819 18.5013 31.6584 18.5013 31.7361H19.5013C19.5013 31.5032 19.447 31.2735 19.3429 31.0652L18.4485 31.5125ZM17.3429 27.0652C16.7901 25.9597 15.2124 25.9597 14.6596 27.0652L15.554 27.5125C15.7383 27.1439 16.2642 27.1439 16.4485 27.5125L17.3429 27.0652Z" fill="black"/>
<path d="M16.0013 26.5L16.0013 23.5" stroke="black" stroke-linecap="round"/>
<path d="M12.9987 62.5L19.0013 56.4975" stroke="black" stroke-linecap="round"/>
<path d="M12.9987 56.4975L19.0013 50.495" stroke="black" stroke-linecap="round"/>
<path d="M12.9987 50.495L19.0013 44.4924" stroke="black" stroke-linecap="round"/>
<path d="M12.9987 44.4924L19.0013 38.4899" stroke="black" stroke-linecap="round"/>
<path d="M12.9987 38.4899L19.0013 32.4874" stroke="black" stroke-linecap="round"/>
</svg>
