<svg width="32" height="64" viewBox="0 0 32 64" fill="none" xmlns="http://www.w3.org/2000/svg">
<path d="M13.1068 31.2889L12.6596 31.0652L13.1068 31.2889ZM18.8957 31.2889L19.3429 31.0652L18.8957 31.2889ZM16.4485 27.5125L18.4485 31.5125L19.3429 31.0652L17.3429 27.0652L16.4485 27.5125ZM13.554 31.5125L15.554 27.5125L14.6596 27.0652L12.6596 31.0652L13.554 31.5125ZM12.5013 31.7361V62.5H13.5013V31.7361H12.5013ZM14.0013 64H18.0013V63H14.0013V64ZM19.5013 62.5V31.7361H18.5013V62.5H19.5013ZM18.0013 64C18.8297 64 19.5013 63.3284 19.5013 62.5H18.5013C18.5013 62.7761 18.2774 63 18.0013 63V64ZM12.5013 62.5C12.5013 63.3284 13.1728 64 14.0013 64V63C13.7251 63 13.5013 62.7761 13.5013 62.5H12.5013ZM12.6596 31.0652C12.5555 31.2735 12.5013 31.5032 12.5013 31.7361H13.5013C13.5013 31.6584 13.5193 31.5819 13.554 31.5125L12.6596 31.0652ZM18.4485 31.5125C18.4832 31.5819 18.5013 31.6584 18.5013 31.7361H19.5013C19.5013 31.5032 19.447 31.2735 19.3429 31.0652L18.4485 31.5125ZM17.3429 27.0652C16.7901 25.9597 15.2124 25.9597 14.6596 27.0652L15.554 27.5125C15.7383 27.1439 16.2642 27.1439 16.4485 27.5125L17.3429 27.0652Z" fill="black"/>
<path d="M16.0013 26.5L16.0013 23.5" stroke="black" stroke-linecap="round"/>
<path d="M12.9987 62.5L19.0013 56.4975" stroke="black" stroke-linecap="round"/>
<path d="M12.9987 56.4975L19.0013 50.495" stroke="black" stroke-linecap="round"/>
<path d="M12.9987 50.495L19.0013 44.4924" stroke="black" stroke-linecap="round"/>
<path d="M12.9987 44.4924L19.0013 38.4899" stroke="black" stroke-linecap="round"/>
<path d="M12.9987 38.4899L19.0013 32.4874" stroke="black" stroke-linecap="round"/>
<path d="M13.8787 24.1213C12.7071 22.9497 12.7071 21.0503 13.8787 19.8787L16 17.7574L18.1213 19.8787C19.2929 21.0503 19.2929 22.9497 18.1213 24.1213C16.9497 25.2929 15.0503 25.2929 13.8787 24.1213Z" stroke="black" stroke-linejoin="round"/>
<path fill-rule="evenodd" clip-rule="evenodd" d="M10.3535 27.6464C10.5488 27.8417 10.5488 28.1583 10.3535 28.3536L8.35354 30.3536C8.15828 30.5488 7.84169 30.5488 7.64643 30.3536C7.45117 30.1583 7.45117 29.8417 7.64643 29.6464L9.64643 27.6464C9.84169 27.4512 10.1583 27.4512 10.3535 27.6464Z" fill="black"/>
<path fill-rule="evenodd" clip-rule="evenodd" d="M24.3535 30.3536C24.1583 30.5488 23.8417 30.5488 23.6464 30.3536L21.6464 28.3536C21.4512 28.1583 21.4512 27.8417 21.6464 27.6464C21.8417 27.4512 22.1583 27.4512 22.3535 27.6464L24.3535 29.6464C24.5488 29.8417 24.5488 30.1583 24.3535 30.3536Z" fill="black"/>
<path fill-rule="evenodd" clip-rule="evenodd" d="M10.3535 16.3536C10.1583 16.5488 9.84169 16.5488 9.64643 16.3536L7.64643 14.3536C7.45117 14.1583 7.45117 13.8417 7.64643 13.6464C7.84169 13.4512 8.15828 13.4512 8.35354 13.6464L10.3535 15.6464C10.5488 15.8417 10.5488 16.1583 10.3535 16.3536Z" fill="black"/>
<path fill-rule="evenodd" clip-rule="evenodd" d="M27.8137 22C27.8137 22.2761 27.5898 22.5 27.3137 22.5L24.4853 22.5C24.2091 22.5 23.9853 22.2761 23.9853 22C23.9853 21.7239 24.2091 21.5 24.4853 21.5L27.3137 21.5C27.5898 21.5 27.8137 21.7239 27.8137 22Z" fill="black"/>
<path fill-rule="evenodd" clip-rule="evenodd" d="M8.01471 22C8.01471 22.2761 7.79085 22.5 7.51471 22.5L4.68628 22.5C4.41014 22.5 4.18628 22.2761 4.18628 22C4.18628 21.7239 4.41014 21.5 4.68628 21.5L7.51471 21.5C7.79085 21.5 8.01471 21.7239 8.01471 22Z" fill="black"/>
<path fill-rule="evenodd" clip-rule="evenodd" d="M16 10.1863C16.2761 10.1863 16.5 10.4102 16.5 10.6863L16.5 13.5147C16.5 13.7909 16.2761 14.0147 16 14.0147C15.7238 14.0147 15.5 13.7909 15.5 13.5147L15.5 10.6863C15.5 10.4102 15.7238 10.1863 16 10.1863Z" fill="black"/>
<path fill-rule="evenodd" clip-rule="evenodd" d="M24.3535 13.6464C24.5488 13.8417 24.5488 14.1583 24.3535 14.3536L22.3535 16.3536C22.1583 16.5488 21.8417 16.5488 21.6464 16.3536C21.4512 16.1583 21.4512 15.8417 21.6464 15.6464L23.6464 13.6464C23.8417 13.4512 24.1583 13.4512 24.3535 13.6464Z" fill="black"/>
</svg>
